<svg xmlns="http://www.w3.org/2000/svg" font-family="Arial" viewBox="0 0 41.25 41.4"
    preserveAspectRatio="xMidYMid meet">
    <rect width="805" height="600" x="0" y="0" fill="#FFFFFF" id="background" />
    <g transform="translate(27,24) scale(0.09)" id="viz">
        <path d="M0,-5.241A5.241,5.241,0,0,1,2.621,-4.539L0,0Z" fill="#9a00ff" />
        <path d="M0,-11.72A11.72,11.72,0,0,1,5.86,-10.15L0,0Z" fill="#bd10e0" />
        <path d="M9.078,-15.724A18.156,18.156,0,0,1,15.724,-9.078L0,0Z" fill="#9a00ff" />
        <path d="M7.862,-13.617A15.724,15.724,0,0,1,13.617,-7.862L0,0Z" fill="#bd10e0" />
        <path d="M15.054,-8.692A17.383,17.383,0,0,1,17.383,0L0,0Z" fill="#9a00ff" />
        <path d="M11.118,-6.419A12.838,12.838,0,0,1,12.838,0L0,0Z" fill="#bd10e0" />
        <path d="M99.306,0A99.306,99.306,0,0,1,86.002,49.653L0,0Z" fill="#9a00ff" />
        <path d="M25.136,0A25.136,25.136,0,0,1,21.768,12.568L0,0Z" fill="#bd10e0" />
        <path d="M130.61,75.408A150.815,150.815,0,0,1,75.408,130.61L0,0Z" fill="#9a00ff" />
        <path d="M24.861,14.354A28.707,28.707,0,0,1,14.354,24.861L0,0Z" fill="#bd10e0" />
        <path d="M4.539,2.621A5.241,5.241,0,0,1,2.621,4.539L0,0Z" fill="#d56bfe" />
        <path d="M73.564,127.416A147.127,147.127,0,0,1,0,147.127L0,0Z" fill="#9a00ff" />
        <path d="M21.925,37.976A43.851,43.851,0,0,1,0,43.851L0,0Z" fill="#bd10e0" />
        <path d="M23.585,40.851A47.171,47.171,0,0,1,0,47.171L0,0Z" fill="#d56bfe" />
        <path d="M0,117.548A117.548,117.548,0,0,1,-58.774,101.799L0,0Z" fill="#9a00ff" />
        <path d="M0,59.297A59.297,59.297,0,0,1,-29.649,51.353L0,0Z" fill="#bd10e0" />
        <path d="M0,60.217A60.217,60.217,0,0,1,-30.108,52.149L0,0Z" fill="#d56bfe" />
        <path d="M-76.133,131.866A152.265,152.265,0,0,1,-131.866,76.133L0,0Z" fill="#9a00ff" />
        <path d="M-26.981,46.732A53.961,53.961,0,0,1,-46.732,26.981L0,0Z" fill="#bd10e0" />
        <path d="M-44.396,76.896A88.791,88.791,0,0,1,-76.896,44.396L0,0Z" fill="#d56bfe" />
        <path d="M-188.519,108.841A217.683,217.683,0,0,1,-217.683,0L0,0Z" fill="#9a00ff" />
        <path d="M-51.951,29.994A59.988,59.988,0,0,1,-59.988,0L0,0Z" fill="#bd10e0" />
        <path d="M-48.463,27.98A55.961,55.961,0,0,1,-55.961,0L0,0Z" fill="#d56bfe" />
        <path d="M-275.399,0A275.399,275.399,0,0,1,-238.503,-137.7L0,0Z" fill="#9a00ff" />
        <path d="M-94.341,0A94.341,94.341,0,0,1,-81.702,-47.171L0,0Z" fill="#bd10e0" />
        <path d="M-47.749,0A47.749,47.749,0,0,1,-41.352,-23.875L0,0Z" fill="#d56bfe" />
        <path d="M-208.991,-120.661A241.322,241.322,0,0,1,-120.661,-208.991L0,0Z" fill="#9a00ff" />
        <path d="M-86.241,-49.791A99.583,99.583,0,0,1,-49.791,-86.241L0,0Z" fill="#bd10e0" />
        <path d="M-29.416,-16.983A33.967,33.967,0,0,1,-16.983,-29.416L0,0Z" fill="#d56bfe" />
        <path d="M-90.969,-157.563A181.938,181.938,0,0,1,0,-181.938L0,0Z" fill="#9a00ff" />
        <path d="M-34.369,-59.528A68.737,68.737,0,0,1,0,-68.737L0,0Z" fill="#bd10e0" />
        <path d="M-14.824,-25.676A29.649,29.649,0,0,1,0,-29.649L0,0Z" fill="#d56bfe" />
    </g>
    <g transform="translate(27,24) scale(0.09)" id="category-layer">
        <path
            d="M7.176212455578685e-16,-11.71964432614374A11.71964432614374,11.71964432614374,0,0,1,5.859822163071869,-10.14950970975864L7.861776415613133,-13.616996189588685A15.72355283122627,15.72355283122627,0,0,1,13.616996189588683,-7.861776415613135L11.118230831305032,-6.419113563366357A12.838227126732715,12.838227126732715,0,0,1,12.838227126732715,0L25.1358367754893,0A25.1358367754893,25.1358367754893,0,0,1,21.768273192952865,12.567918387744646L24.861119928332055,14.353574282978075A28.70714856595616,28.70714856595616,0,0,1,14.353574282978089,24.861119928332048L21.92544688163953,37.97598797765224A43.85089376327903,43.85089376327903,0,0,1,2.2158801596901138e-14,43.85089376327903L2.9964168718889675e-14,59.297231100293516A59.297231100293516,59.297231100293516,0,0,1,-29.648615550146726,51.35290850693089L-26.98064740876242,46.731852133078156A53.961294817524895,53.961294817524895,0,0,1,-46.73185213307813,26.980647408762465L-51.95121500533267,29.99404796805697A59.9880959361139,59.9880959361139,0,0,1,-59.9880959361139,7.346422967510623e-15L-94.34131698735762,1.1553479187591332e-14A94.34131698735762,94.34131698735762,0,0,1,-81.7019771375321,-47.170658493678815L-86.240975867395,-49.79125063221654A99.58250126443305,99.58250126443305,0,0,1,-49.79125063221649,-86.24097586739502L-34.36874369146028,-59.5284102659216A68.73748738292062,68.73748738292062,0,0,1,4.8424281332180936e-14,-68.73748738292062L7.176212455578685e-16,-11.71964432614374Z"
            fill="none" stroke="#FFFFFF" opacity="1" style="stroke-width: 2;" />
        <path
            d="M3.209299774330926e-16,-5.241184277075424A5.241184277075424,5.241184277075424,0,0,1,2.6205921385377113,-4.538998729862895L9.077997459725786,-15.723552831226268A18.155994919451576,18.155994919451576,0,0,1,15.723552831226266,-9.077997459725788L15.054155710854948,-8.691520852084647A17.383041704169294,17.383041704169294,0,0,1,17.383041704169294,0L99.30626633213174,0A99.30626633213174,99.30626633213174,0,0,1,86.0017493986094,49.65313316606586L130.60963915771723,75.40751032646789A150.81502065293583,150.81502065293583,0,0,1,75.40751032646797,130.60963915771717L73.56352688237386,127.41576614423037A147.12705376474764,147.12705376474764,0,0,1,7.43464708270034e-14,147.12705376474764L5.939928830382287e-14,117.54750678347075A117.54750678347075,117.54750678347075,0,0,1,-58.77375339173531,101.79912702600934L-76.13259922097367,131.86552996300534A152.26519844194752,152.26519844194752,0,0,1,-131.86552996300526,76.13259922097382L-188.51877581616972,108.84136596476439A217.68273192952864,217.68273192952864,0,0,1,-217.68273192952864,2.665844608871486e-14L-275.3991736754327,3.372667165294447e-14A275.3991736754327,275.3991736754327,0,0,1,-238.5026805841673,-137.69958683771637L-208.99119616806246,-120.66112336589278A241.3222467317855,241.3222467317855,0,0,1,-120.66112336589265,-208.99119616806252L-90.96890294854393,-157.5627618156805A181.937805897088,181.937805897088,0,0,1,1.2817180018001955e-13,-181.937805897088L3.209299774330926e-16,-5.241184277075424Z"
            fill="none" stroke="#FFFFFF" opacity="1" style="stroke-width: 2;" />
        <path
            d="M4.538998729862895,2.620592138537711A5.241184277075424,5.241184277075424,0,0,1,2.6205921385377136,4.538998729862894L23.585329246839418,40.85098856876604A47.17065849367881,47.17065849367881,0,0,1,2.38363502554628e-14,47.17065849367881L3.04287571794064e-14,60.2166228434198A60.2166228434198,60.2166228434198,0,0,1,-30.108311421709868,52.14912511250791L-44.39564624976574,76.89551493944907A88.79129249953158,88.79129249953158,0,0,1,-76.89551493944901,44.39564624976582L-48.46324462461685,27.980267329825246A55.960534659650456,55.960534659650456,0,0,1,-55.960534659650456,6.853188964951545e-15L-47.749461232351074,5.847622485920937e-15A47.749461232351074,47.749461232351074,0,0,1,-41.352246444236236,-23.87473061617554L-29.416073798644046,-16.98337812614904A33.966756252298076,33.966756252298076,0,0,1,-16.983378126149024,-29.416073798644053L-14.824307775073368,-25.676454253465437A29.648615550146758,29.648615550146758,0,0,1,2.0886898185730254e-14,-29.648615550146758L0,0Z"
            fill="none" stroke="#FFFFFF" opacity="1" style="stroke-width: 2;" />
    </g>
</svg>