<?xml version="1.0" encoding="UTF-8"?>
<svg id="rawgraphs-icons" xmlns="http://www.w3.org/2000/svg" version="1.1" viewBox="0 0 41.25 41.4">
  <!-- Generator: Adobe Illustrator 29.5.1, SVG Export Plug-In . SVG Version: 2.1.0 Build 141)  -->
  <defs>
    <style>
      .st0 {
        fill: none;
        stroke: #ad00ff;
        stroke-miterlimit: 10;
      }

      .st1 {
        fill: #ad00ff;
      }
    </style>
  </defs>
  <rect class="st1" x="6.91" y="25.26" width="6.5" height="10.88"/>
  <polyline class="st0" points="12.75 23.82 19.38 16.4 27.06 10.91 34.89 8.09"/>
  <rect class="st1" x="5.39" y="5.26" width=".8" height="32.38"/>
  <polygon class="st1" points="4.43 6.76 5.78 5.36 7.14 6.76 7.14 5.56 5.78 4.16 4.43 5.56 4.43 6.76"/>
  <rect class="st1" x="5.43" y="36.84" width="31.34" height=".82"/>
  <polygon class="st1" points="35.18 35.85 36.54 37.26 35.18 38.66 36.33 38.66 37.69 37.26 36.33 35.85 35.18 35.85"/>
  <rect class="st1" x="14" y="28" width="6.5" height="8.16"/>
  <rect class="st1" x="21.11" y="29.25" width="6.5" height="6.93"/>
  <rect class="st1" x="28.15" y="33.22" width="6.5" height="2.96"/>
</svg>