<?xml version="1.0" encoding="UTF-8"?>
<svg id="rawgraphs-icons" xmlns="http://www.w3.org/2000/svg" version="1.1" viewBox="0 0 41.25 41.4">
  <!-- Generator: Adobe Illustrator 29.5.1, SVG Export Plug-In . SVG Version: 2.1.0 Build 141)  -->
  <defs>
    <style>
      .st0 {
        fill: none;
        stroke: #ad00ff;
        stroke-miterlimit: 10;
      }

      .st1 {
        fill: #ad00ff;
      }
    </style>
  </defs>
  <rect class="st1" x="9.06" y="24.05" width="5.39" height="9.03"/>
  <polyline class="st0" points="13.91 22.85 19.41 16.69 25.78 12.14 32.28 9.8"/>
  <rect class="st1" x="7.8" y="7.45" width=".66" height="26.87"/>
  <polygon class="st1" points="7 8.69 8.12 7.53 9.25 8.69 9.25 7.7 8.12 6.54 7 7.7 7 8.69"/>
  <rect class="st1" x="7.83" y="33.66" width="26.01" height=".68"/>
  <polygon class="st1" points="32.52 32.84 33.65 34.01 32.52 35.17 33.48 35.17 34.6 34.01 33.48 32.84 32.52 32.84"/>
  <rect class="st1" x="14.94" y="26.32" width="5.39" height="6.77"/>
  <rect class="st1" x="20.84" y="27.36" width="5.39" height="5.75"/>
  <rect class="st1" x="26.69" y="30.65" width="5.39" height="2.46"/>
</svg>