<svg width="1256" height="936" xmlns="http://www.w3.org/2000/svg" xmlns:xlink="http://www.w3.org/1999/xlink" xml:space="preserve" overflow="hidden"><g transform="translate(-1236 -188)"><g><g><g><g><path d="M0 0 1255 0 1255 935.404 0 935.404Z" fill="#FFFFFF" fill-rule="nonzero" fill-opacity="1" transform="matrix(1 0 0 1.00064 1237 188)"/><path d="M206.587 712.762 471.599 712.762 471.599 746.767 206.587 746.767Z" fill="#EA3C2E" fill-rule="nonzero" fill-opacity="1" transform="matrix(1 0 0 1.00064 1314.95 297.2)"/><path d="M213.599 677.203 471.599 677.203 471.599 711.207 213.599 711.207Z" fill="#ED4131" fill-rule="nonzero" fill-opacity="1" transform="matrix(1 0 0 1.00064 1314.95 297.2)"/><path d="M216.209 641.642 471.599 641.642 471.599 675.646 216.209 675.646Z" fill="#EE4332" fill-rule="nonzero" fill-opacity="1" transform="matrix(1 0 0 1.00064 1314.95 297.2)"/><path d="M205.971 606.082 471.599 606.082 471.599 640.087 205.971 640.087Z" fill="#EA3B2E" fill-rule="nonzero" fill-opacity="1" transform="matrix(1 0 0 1.00064 1314.95 297.2)"/><path d="M157.246 570.521 471.599 570.521 471.599 604.526 157.246 604.526Z" fill="#CC1D1F" fill-rule="nonzero" fill-opacity="1" transform="matrix(1 0 0 1.00064 1314.95 297.2)"/><path d="M108.983 534.961 471.6 534.961 471.6 568.965 108.983 568.965Z" fill="#A70F16" fill-rule="nonzero" fill-opacity="1" transform="matrix(1 0 0 1.00064 1314.95 297.2)"/><path d="M108.142 499.401 471.6 499.401 471.6 533.406 108.142 533.406Z" fill="#A60F16" fill-rule="nonzero" fill-opacity="1" transform="matrix(1 0 0 1.00064 1314.95 297.2)"/><path d="M110.285 463.84 471.6 463.84 471.6 497.845 110.285 497.845Z" fill="#A81016" fill-rule="nonzero" fill-opacity="1" transform="matrix(1 0 0 1.00064 1314.95 297.2)"/><path d="M137.777 428.279 471.599 428.279 471.599 462.284 137.777 462.284Z" fill="#BE161B" fill-rule="nonzero" fill-opacity="1" transform="matrix(1 0 0 1.00064 1314.95 297.2)"/><path d="M106.491 392.72 471.599 392.72 471.599 426.724 106.491 426.724Z" fill="#A50F16" fill-rule="nonzero" fill-opacity="1" transform="matrix(1 0 0 1.00064 1314.95 297.2)"/><path d="M50.0544 357.159 471.599 357.159 471.599 391.164 50.0544 391.164Z" fill="#67000D" fill-rule="nonzero" fill-opacity="1" transform="matrix(1 0 0 1.00064 1314.95 297.2)"/><path d="M69.4784 321.6 471.599 321.6 471.599 355.604 69.4783 355.604Z" fill="#7E0510" fill-rule="nonzero" fill-opacity="1" transform="matrix(1 0 0 1.00064 1314.95 297.2)"/><path d="M148.358 286.039 471.599 286.039 471.599 320.043 148.358 320.043Z" fill="#C61A1D" fill-rule="nonzero" fill-opacity="1" transform="matrix(1 0 0 1.00064 1314.95 297.2)"/><path d="M221.083 250.478 471.599 250.478 471.599 284.482 221.083 284.482Z" fill="#F04735" fill-rule="nonzero" fill-opacity="1" transform="matrix(1 0 0 1.00064 1314.95 297.2)"/><path d="M259.804 214.918 471.599 214.918 471.599 248.923 259.804 248.923Z" fill="#F9684B" fill-rule="nonzero" fill-opacity="1" transform="matrix(1 0 0 1.00064 1314.95 297.2)"/><path d="M274.115 179.357 471.599 179.357 471.599 213.362 274.115 213.362Z" fill="#FA7455" fill-rule="nonzero" fill-opacity="1" transform="matrix(1 0 0 1.00064 1314.95 297.2)"/><path d="M353.174 143.797 471.599 143.797 471.599 177.802 353.174 177.802Z" fill="#FCB196" fill-rule="nonzero" fill-opacity="1" transform="matrix(1 0 0 1.00064 1314.95 297.2)"/><path d="M410.698 108.237 471.6 108.237 471.6 142.241 410.698 142.241Z" fill="#FED9C9" fill-rule="nonzero" fill-opacity="1" transform="matrix(1 0 0 1.00064 1314.95 297.2)"/><path d="M448.896 72.6765 471.6 72.6765 471.6 106.681 448.896 106.681Z" fill="#FFECE3" fill-rule="nonzero" fill-opacity="1" transform="matrix(1 0 0 1.00064 1314.95 297.2)"/><path d="M467.714 37.116 471.599 37.116 471.599 71.1206 467.714 71.1206Z" fill="#FFF4EE" fill-rule="nonzero" fill-opacity="1" transform="matrix(1 0 0 1.00064 1314.95 297.2)"/><path d="M471.412 1.55577 471.6 1.55577 471.6 35.5603 471.412 35.5603Z" fill="#FFF5F0" fill-rule="nonzero" fill-opacity="1" transform="matrix(1 0 0 1.00064 1314.95 297.2)"/><path d="M627.5 712.762 878.081 712.762 878.081 746.767 627.5 746.767Z" fill="#4B98C9" fill-rule="nonzero" fill-opacity="1" transform="matrix(1 0 0 1.00064 1314.95 297.2)"/><path d="M627.5 677.203 870.03 677.203 870.03 711.207 627.5 711.207Z" fill="#529CCC" fill-rule="nonzero" fill-opacity="1" transform="matrix(1 0 0 1.00064 1314.95 297.2)"/><path d="M627.5 641.642 870.296 641.642 870.296 675.646 627.5 675.646Z" fill="#519CCC" fill-rule="nonzero" fill-opacity="1" transform="matrix(1 0 0 1.00064 1314.95 297.2)"/><path d="M627.5 606.082 877.3 606.082 877.3 640.087 627.5 640.087Z" fill="#4C98CA" fill-rule="nonzero" fill-opacity="1" transform="matrix(1 0 0 1.00064 1314.95 297.2)"/><path d="M627.5 570.521 924.91 570.521 924.91 604.526 627.5 604.526Z" fill="#2C7BBA" fill-rule="nonzero" fill-opacity="1" transform="matrix(1 0 0 1.00064 1314.95 297.2)"/><path d="M627.5 534.961 972.519 534.961 972.519 568.965 627.5 568.965Z" fill="#135EA5" fill-rule="nonzero" fill-opacity="1" transform="matrix(1 0 0 1.00064 1314.95 297.2)"/><path d="M627.5 499.401 979.059 499.401 979.059 533.406 627.5 533.406Z" fill="#115AA1" fill-rule="nonzero" fill-opacity="1" transform="matrix(1 0 0 1.00064 1314.95 297.2)"/><path d="M627.5 463.84 983.479 463.84 983.479 497.845 627.5 497.845Z" fill="#0F579F" fill-rule="nonzero" fill-opacity="1" transform="matrix(1 0 0 1.00064 1314.95 297.2)"/><path d="M627.5 428.279 959.531 428.279 959.531 462.284 627.5 462.284Z" fill="#1966AC" fill-rule="nonzero" fill-opacity="1" transform="matrix(1 0 0 1.00064 1314.95 297.2)"/><path d="M627.5 392.72 999.175 392.72 999.175 426.724 627.5 426.724Z" fill="#0B4D94" fill-rule="nonzero" fill-opacity="1" transform="matrix(1 0 0 1.00064 1314.95 297.2)"/><path d="M627.5 357.159 1045.71 357.159 1045.71 391.164 627.5 391.164Z" fill="#08306B" fill-rule="nonzero" fill-opacity="1" transform="matrix(1 0 0 1.00064 1314.95 297.2)"/><path d="M627.5 321.6 1031.18 321.6 1031.18 355.604 627.5 355.604Z" fill="#083979" fill-rule="nonzero" fill-opacity="1" transform="matrix(1 0 0 1.00064 1314.95 297.2)"/><path d="M627.5 286.039 967.105 286.039 967.105 320.043 627.5 320.043Z" fill="#1561A8" fill-rule="nonzero" fill-opacity="1" transform="matrix(1 0 0 1.00064 1314.95 297.2)"/><path d="M627.5 250.478 906.476 250.478 906.476 284.482 627.5 284.482Z" fill="#3887C0" fill-rule="nonzero" fill-opacity="1" transform="matrix(1 0 0 1.00064 1314.95 297.2)"/><path d="M627.5 214.918 876.821 214.918 876.821 248.923 627.5 248.923Z" fill="#4C98CA" fill-rule="nonzero" fill-opacity="1" transform="matrix(1 0 0 1.00064 1314.95 297.2)"/><path d="M627.5 179.357 879.791 179.357 879.791 213.362 627.5 213.362Z" fill="#4A97C9" fill-rule="nonzero" fill-opacity="1" transform="matrix(1 0 0 1.00064 1314.95 297.2)"/><path d="M627.5 143.797 795.445 143.797 795.445 177.802 627.5 177.802Z" fill="#93C3DF" fill-rule="nonzero" fill-opacity="1" transform="matrix(1 0 0 1.00064 1314.95 297.2)"/><path d="M627.5 108.237 735.813 108.237 735.813 142.241 627.5 142.241Z" fill="#C2DAED" fill-rule="nonzero" fill-opacity="1" transform="matrix(1 0 0 1.00064 1314.95 297.2)"/><path d="M627.5 72.6765 682.401 72.6765 682.401 106.681 627.5 106.681Z" fill="#DDEBF7" fill-rule="nonzero" fill-opacity="1" transform="matrix(1 0 0 1.00064 1314.95 297.2)"/><path d="M627.5 37.116 642.69 37.116 642.69 71.1206 627.5 71.1206Z" fill="#F0F7FD" fill-rule="nonzero" fill-opacity="1" transform="matrix(1 0 0 1.00064 1314.95 297.2)"/><path d="M627.5 1.55577 628.639 1.55577 628.639 35.5603 627.5 35.5603Z" fill="#F7FBFF" fill-rule="nonzero" fill-opacity="1" transform="matrix(1 0 0 1.00064 1314.95 297.2)"/></g></g></g></g></g></svg>