<svg xmlns="http://www.w3.org/2000/svg" width="805" height="600"><rect width="805" height="600" fill="#FFFFFF"/><g transform="translate(60,50)"><rect class="bar" x="16.707317073170714" width="150.3658536585366" y="263.20000000000005" height="206.79999999999995" fill="#1f77b4"/><rect class="bar" x="183.78048780487805" width="150.3658536585366" y="300.8" height="169.2" fill="#1f77b4"/><rect class="bar" x="350.8536585365854" width="150.3658536585366" y="394.8" height="75.19999999999999" fill="#1f77b4"/><rect class="bar" x="517.9268292682927" width="150.3658536585366" y="451.2" height="18.80000000000001" fill="#1f77b4"/><text transform="rotate(-90)" x="-235" y="-45" text-anchor="middle" style="font-family: Arial, sans-serif; font-size: 12px; fill: rgb(123, 123, 123); font-weight: bold;">Values</text><g fill="none" font-size="10" font-family="sans-serif" text-anchor="end"><path class="domain" stroke="currentColor" d="M-6,470.5H0.5V0.5H-6"/><g class="tick" opacity="1" transform="translate(0,470.5)"><line stroke="currentColor" x2="-6"/><text fill="currentColor" x="-9" dy="0.32em">0</text></g><g class="tick" opacity="1" transform="translate(0,376.5)"><line stroke="currentColor" x2="-6"/><text fill="currentColor" x="-9" dy="0.32em">50</text></g><g class="tick" opacity="1" transform="translate(0,282.5)"><line stroke="currentColor" x2="-6"/><text fill="currentColor" x="-9" dy="0.32em">100</text></g><g class="tick" opacity="1" transform="translate(0,188.5)"><line stroke="currentColor" x2="-6"/><text fill="currentColor" x="-9" dy="0.32em">150</text></g><g class="tick" opacity="1" transform="translate(0,94.49999999999999)"><line stroke="currentColor" x2="-6"/><text fill="currentColor" x="-9" dy="0.32em">200</text></g><g class="tick" opacity="1" transform="translate(0,0.5)"><line stroke="currentColor" x2="-6"/><text fill="currentColor" x="-9" dy="0.32em">250</text></g></g><g transform="translate(0,470)" fill="none" font-size="10" font-family="sans-serif" text-anchor="middle"><path class="domain" stroke="currentColor" d="M0.5,6V0.5H685.5V6"/><g class="tick" opacity="1" transform="translate(91.89024390243901,0)"><line stroke="currentColor" y2="6"/><text fill="currentColor" y="9" dy="0.15em" text-anchor="end" transform="rotate(-45)" dx="-0.8em">Train</text></g><g class="tick" opacity="1" transform="translate(258.9634146341464,0)"><line stroke="currentColor" y2="6"/><text fill="currentColor" y="9" dy="0.15em" text-anchor="end" transform="rotate(-45)" dx="-0.8em">Car</text></g><g class="tick" opacity="1" transform="translate(426.0365853658537,0)"><line stroke="currentColor" y2="6"/><text fill="currentColor" y="9" dy="0.15em" text-anchor="end" transform="rotate(-45)" dx="-0.8em">Bicycle</text></g><g class="tick" opacity="1" transform="translate(593.1097560975611,0)"><line stroke="currentColor" y2="6"/><text fill="currentColor" y="9" dy="0.15em" text-anchor="end" transform="rotate(-45)" dx="-0.8em">Walking</text></g></g><text x="342.5" y="540" text-anchor="middle" style="font-family: Arial, sans-serif; font-size: 12px; fill: rgb(123, 123, 123); font-weight: bold;">Categories</text><text transform="rotate(-90)" x="-235" y="735" text-anchor="middle" style="font-family: Arial, sans-serif; font-size: 12px; fill: rgb(123, 123, 123); font-weight: bold;">Cumulative %</text><g transform="translate(685,0)" fill="none" font-size="10" font-family="sans-serif" text-anchor="start"><path class="domain" stroke="currentColor" d="M6,470.5H0.5V0.5H6"/><g class="tick" opacity="1" transform="translate(0,470.5)"><line stroke="currentColor" x2="6"/><text fill="currentColor" x="9" dy="0.32em">0%</text></g><g class="tick" opacity="1" transform="translate(0,423.5)"><line stroke="currentColor" x2="6"/><text fill="currentColor" x="9" dy="0.32em">10%</text></g><g class="tick" opacity="1" transform="translate(0,376.5)"><line stroke="currentColor" x2="6"/><text fill="currentColor" x="9" dy="0.32em">20%</text></g><g class="tick" opacity="1" transform="translate(0,329.5)"><line stroke="currentColor" x2="6"/><text fill="currentColor" x="9" dy="0.32em">30%</text></g><g class="tick" opacity="1" transform="translate(0,282.5)"><line stroke="currentColor" x2="6"/><text fill="currentColor" x="9" dy="0.32em">40%</text></g><g class="tick" opacity="1" transform="translate(0,235.5)"><line stroke="currentColor" x2="6"/><text fill="currentColor" x="9" dy="0.32em">50%</text></g><g class="tick" opacity="1" transform="translate(0,188.5)"><line stroke="currentColor" x2="6"/><text fill="currentColor" x="9" dy="0.32em">60%</text></g><g class="tick" opacity="1" transform="translate(0,141.50000000000003)"><line stroke="currentColor" x2="6"/><text fill="currentColor" x="9" dy="0.32em">70%</text></g><g class="tick" opacity="1" transform="translate(0,94.49999999999999)"><line stroke="currentColor" x2="6"/><text fill="currentColor" x="9" dy="0.32em">80%</text></g><g class="tick" opacity="1" transform="translate(0,47.49999999999999)"><line stroke="currentColor" x2="6"/><text fill="currentColor" x="9" dy="0.32em">90%</text></g><g class="tick" opacity="1" transform="translate(0,0.5)"><line stroke="currentColor" x2="6"/><text fill="currentColor" x="9" dy="0.32em">100%</text></g></g><path fill="none" stroke="#d62728" stroke-width="2" d="M91.89024390243901,263.20000000000005L258.9634146341464,93.99999999999999L426.0365853658537,18.80000000000002L593.1097560975611,0"/><circle class="cumulative-point" cx="91.89024390243901" cy="263.20000000000005" r="4" fill="#d62728"/><circle class="cumulative-point" cx="258.9634146341464" cy="93.99999999999999" r="4" fill="#d62728"/><circle class="cumulative-point" cx="426.0365853658537" cy="18.80000000000002" r="4" fill="#d62728"/><circle class="cumulative-point" cx="593.1097560975611" cy="0" r="4" fill="#d62728"/></g></svg>