<svg xmlns="http://www.w3.org/2000/svg" viewBox="0 0 805 600" preserveAspectRatio="xMidYMid meet"><rect width="805" height="600" fill="#FFFFFF"/><g transform="translate(60,50)"><rect class="bar" x="8.456790123456813" width="76.11111111111111" y="302.1428571428571" height="167.8571428571429" fill="#1f77b4"/><rect class="bar" x="93.02469135802471" width="76.11111111111111" y="369.2857142857143" height="100.71428571428572" fill="#1f77b4"/><rect class="bar" x="177.5925925925926" width="76.11111111111111" y="391.6666666666667" height="78.33333333333331" fill="#1f77b4"/><rect class="bar" x="262.1604938271605" width="76.11111111111111" y="425.23809523809524" height="44.76190476190476" fill="#1f77b4"/><rect class="bar" x="346.7283950617284" width="76.11111111111111" y="442.0238095238095" height="27.97619047619048" fill="#1f77b4"/><rect class="bar" x="431.2962962962963" width="76.11111111111111" y="447.6190476190476" height="22.380952380952408" fill="#1f77b4"/><rect class="bar" x="515.8641975308642" width="76.11111111111111" y="453.2142857142857" height="16.785714285714278" fill="#1f77b4"/><rect class="bar" x="600.4320987654321" width="76.11111111111111" y="458.8095238095238" height="11.190476190476204" fill="#1f77b4"/><text transform="rotate(-90)" x="-235" y="-45" text-anchor="middle" style="font-family: Arial, sans-serif; font-size: 12px; fill: rgb(123, 123, 123); font-weight: bold;">Values</text><g fill="none" font-size="10" font-family="sans-serif" text-anchor="end"><path class="domain" stroke="currentColor" d="M-6,470.5H0.5V0.5H-6"/><g class="tick" opacity="1" transform="translate(0,470.5)"><line stroke="currentColor" x2="-6"/><text fill="currentColor" x="-9" dy="0.32em">0</text></g><g class="tick" opacity="1" transform="translate(0,358.5952380952381)"><line stroke="currentColor" x2="-6"/><text fill="currentColor" x="-9" dy="0.32em">100</text></g><g class="tick" opacity="1" transform="translate(0,246.6904761904762)"><line stroke="currentColor" x2="-6"/><text fill="currentColor" x="-9" dy="0.32em">200</text></g><g class="tick" opacity="1" transform="translate(0,134.78571428571428)"><line stroke="currentColor" x2="-6"/><text fill="currentColor" x="-9" dy="0.32em">300</text></g><g class="tick" opacity="1" transform="translate(0,22.880952380952404)"><line stroke="currentColor" x2="-6"/><text fill="currentColor" x="-9" dy="0.32em">400</text></g></g><g transform="translate(0,470)" fill="none" font-size="10" font-family="sans-serif" text-anchor="middle"><path class="domain" stroke="currentColor" d="M0.5,6V0.5H685.5V6"/><g class="tick" opacity="1" transform="translate(46.51234567901237,0)"><line stroke="currentColor" y2="6"/><text fill="currentColor" y="9" dy="0.15em" text-anchor="end" transform="rotate(-45)" dx="-0.8em">Late delivery</text></g><g class="tick" opacity="1" transform="translate(131.08024691358025,0)"><line stroke="currentColor" y2="6"/><text fill="currentColor" y="9" dy="0.15em" text-anchor="end" transform="rotate(-45)" dx="-0.8em">Damaged product</text></g><g class="tick" opacity="1" transform="translate(215.64814814814815,0)"><line stroke="currentColor" y2="6"/><text fill="currentColor" y="9" dy="0.15em" text-anchor="end" transform="rotate(-45)" dx="-0.8em">Incorrect item</text></g><g class="tick" opacity="1" transform="translate(300.21604938271605,0)"><line stroke="currentColor" y2="6"/><text fill="currentColor" y="9" dy="0.15em" text-anchor="end" transform="rotate(-45)" dx="-0.8em">Poor customer service</text></g><g class="tick" opacity="1" transform="translate(384.78395061728395,0)"><line stroke="currentColor" y2="6"/><text fill="currentColor" y="9" dy="0.15em" text-anchor="end" transform="rotate(-45)" dx="-0.8em">Website issues</text></g><g class="tick" opacity="1" transform="translate(469.35185185185185,0)"><line stroke="currentColor" y2="6"/><text fill="currentColor" y="9" dy="0.15em" text-anchor="end" transform="rotate(-45)" dx="-0.8em">Refund delays</text></g><g class="tick" opacity="1" transform="translate(553.9197530864197,0)"><line stroke="currentColor" y2="6"/><text fill="currentColor" y="9" dy="0.15em" text-anchor="end" transform="rotate(-45)" dx="-0.8em">Missing items</text></g><g class="tick" opacity="1" transform="translate(638.4876543209876,0)"><line stroke="currentColor" y2="6"/><text fill="currentColor" y="9" dy="0.15em" text-anchor="end" transform="rotate(-45)" dx="-0.8em">Other</text></g></g><text x="342.5" y="540" text-anchor="middle" style="font-family: Arial, sans-serif; font-size: 12px; fill: rgb(123, 123, 123); font-weight: bold;">Categories</text><text transform="rotate(-90)" x="-235" y="735" text-anchor="middle" style="font-family: Arial, sans-serif; font-size: 12px; fill: rgb(123, 123, 123); font-weight: bold;">Cumulative %</text><g transform="translate(685,0)" fill="none" font-size="10" font-family="sans-serif" text-anchor="start"><path class="domain" stroke="currentColor" d="M6,470.5H0.5V0.5H6"/><g class="tick" opacity="1" transform="translate(0,470.5)"><line stroke="currentColor" x2="6"/><text fill="currentColor" x="9" dy="0.32em">0%</text></g><g class="tick" opacity="1" transform="translate(0,423.5)"><line stroke="currentColor" x2="6"/><text fill="currentColor" x="9" dy="0.32em">10%</text></g><g class="tick" opacity="1" transform="translate(0,376.5)"><line stroke="currentColor" x2="6"/><text fill="currentColor" x="9" dy="0.32em">20%</text></g><g class="tick" opacity="1" transform="translate(0,329.5)"><line stroke="currentColor" x2="6"/><text fill="currentColor" x="9" dy="0.32em">30%</text></g><g class="tick" opacity="1" transform="translate(0,282.5)"><line stroke="currentColor" x2="6"/><text fill="currentColor" x="9" dy="0.32em">40%</text></g><g class="tick" opacity="1" transform="translate(0,235.5)"><line stroke="currentColor" x2="6"/><text fill="currentColor" x="9" dy="0.32em">50%</text></g><g class="tick" opacity="1" transform="translate(0,188.5)"><line stroke="currentColor" x2="6"/><text fill="currentColor" x="9" dy="0.32em">60%</text></g><g class="tick" opacity="1" transform="translate(0,141.50000000000003)"><line stroke="currentColor" x2="6"/><text fill="currentColor" x="9" dy="0.32em">70%</text></g><g class="tick" opacity="1" transform="translate(0,94.49999999999999)"><line stroke="currentColor" x2="6"/><text fill="currentColor" x="9" dy="0.32em">80%</text></g><g class="tick" opacity="1" transform="translate(0,47.49999999999999)"><line stroke="currentColor" x2="6"/><text fill="currentColor" x="9" dy="0.32em">90%</text></g><g class="tick" opacity="1" transform="translate(0,0.5)"><line stroke="currentColor" x2="6"/><text fill="currentColor" x="9" dy="0.32em">100%</text></g></g><path fill="none" stroke="#d62728" stroke-width="2" d="M46.51234567901237,302.1428571428571L131.08024691358025,201.42857142857144L215.64814814814815,123.09523809523807L300.21604938271605,78.33333333333331L384.78395061728395,50.35714285714283L469.35185185185185,27.97619047619048L553.9197530864197,11.190476190476202L638.4876543209876,0"/><circle class="cumulative-point" cx="46.51234567901237" cy="302.1428571428571" r="4" fill="#d62728"/><circle class="cumulative-point" cx="131.08024691358025" cy="201.42857142857144" r="4" fill="#d62728"/><circle class="cumulative-point" cx="215.64814814814815" cy="123.09523809523807" r="4" fill="#d62728"/><circle class="cumulative-point" cx="300.21604938271605" cy="78.33333333333331" r="4" fill="#d62728"/><circle class="cumulative-point" cx="384.78395061728395" cy="50.35714285714283" r="4" fill="#d62728"/><circle class="cumulative-point" cx="469.35185185185185" cy="27.97619047619048" r="4" fill="#d62728"/><circle class="cumulative-point" cx="553.9197530864197" cy="11.190476190476202" r="4" fill="#d62728"/><circle class="cumulative-point" cx="638.4876543209876" cy="0" r="4" fill="#d62728"/></g></svg>