<svg xmlns="http://www.w3.org/2000/svg" font-family="Arial" viewBox="0 0 854 600"
    preserveAspectRatio="xMidYMid meet">
    <rect width="854" height="600" x="0" y="0" fill="#f0f0f0" id="background" />
    <g transform="translate(400.5,308)" id="viz">
        <path d="M-1.45,-4.981A5.188,5.188,0,0,1,1.235,-5.039L0,0Z" fill="#9aced5" />
        <path d="M-3.241,-11.138A11.6,11.6,0,0,1,2.762,-11.267L0,0Z" fill="#252626" />
        <path id="arc-label-April-1854"
            d="M-28.475,-97.85A101.909,101.909,0,0,1,24.265,-98.978A101.909,101.909,0,0,0,-28.475,-97.85Z"
            fill="none" stroke="none" />
        <text dy="-3">
            <textPath xmlns:ns1="http://www.w3.org/1999/xlink" ns1:href="#arc-label-April-1854"
                startOffset="25%" text-anchor="middle" transform="rotate(180)"
                dominant-baseline="middle" style="font-size: 10px;">April 1854</textPath>
        </text>
        <path d="M4.279,-17.454A17.971,17.971,0,0,1,12.433,-12.977L0,0Z" fill="#9aced5" />
        <path d="M3.706,-15.116A15.564,15.564,0,0,1,10.767,-11.238L0,0Z" fill="#252626" />
        <path id="arc-label-May-1854"
            d="M24.265,-98.978A101.909,101.909,0,0,1,70.503,-73.585A101.909,101.909,0,0,0,24.265,-98.978Z"
            fill="none" stroke="none" />
        <text dy="-3">
            <textPath xmlns:ns2="http://www.w3.org/1999/xlink" ns2:href="#arc-label-May-1854"
                startOffset="25%" text-anchor="middle" transform="rotate(180)"
                dominant-baseline="middle" style="font-size: 10px;">May 1854</textPath>
        </text>
        <path d="M11.904,-12.424A17.206,17.206,0,0,1,16.521,-4.808L0,0Z" fill="#9aced5" />
        <path d="M8.791,-9.176A12.708,12.708,0,0,1,12.202,-3.551L0,0Z" fill="#252626" />
        <path id="arc-label-June-1854"
            d="M70.503,-73.585A101.909,101.909,0,0,1,97.85,-28.475A101.909,101.909,0,0,0,70.503,-73.585Z"
            fill="none" stroke="none" />
        <text dy="-3">
            <textPath xmlns:ns3="http://www.w3.org/1999/xlink" ns3:href="#arc-label-June-1854"
                startOffset="25%" text-anchor="middle" transform="rotate(180)"
                dominant-baseline="middle" style="font-size: 10px;">June 1854</textPath>
        </text>
        <path d="M94.381,-27.466A98.296,98.296,0,0,1,95.469,23.405L0,0Z" fill="#9aced5" />
        <path d="M23.889,-6.952A24.88,24.88,0,0,1,24.165,5.924L0,0Z" fill="#252626" />
        <path id="arc-label-July-1854"
            d="M99.1,-28.839A103.211,103.211,0,0,1,100.243,24.575A103.211,103.211,0,0,0,99.1,-28.839Z"
            fill="none" stroke="none" />
        <text dy="-3">
            <textPath xmlns:ns4="http://www.w3.org/1999/xlink" ns4:href="#arc-label-July-1854"
                startOffset="25%" text-anchor="middle" transform="rotate(180)"
                dominant-baseline="middle" style="font-size: 10px;">July 1854</textPath>
        </text>
        <path d="M144.988,35.545A149.281,149.281,0,0,1,107.791,103.276L0,0Z" fill="#9aced5" />
        <path d="M27.598,6.766A28.415,28.415,0,0,1,20.518,19.658L0,0Z" fill="#252626" />
        <path d="M5.039,1.235A5.188,5.188,0,0,1,3.746,3.589L0,0Z" fill="#e1b7e6" />
        <path id="arc-label-August-1854"
            d="M152.237,37.322A156.745,156.745,0,0,1,113.181,108.44A156.745,156.745,0,0,0,152.237,37.322Z"
            fill="none" stroke="none" />
        <text dy="-3">
            <textPath xmlns:ns5="http://www.w3.org/1999/xlink" ns5:href="#arc-label-August-1854"
                startOffset="25%" text-anchor="middle" transform="rotate(180)"
                dominant-baseline="middle" style="font-size: 10px;">August 1854</textPath>
        </text>
        <path d="M105.155,100.751A145.631,145.631,0,0,1,40.692,139.83L0,0Z" fill="#9aced5" />
        <path d="M31.341,30.029A43.405,43.405,0,0,1,12.128,41.676L0,0Z" fill="#252626" />
        <path d="M33.714,32.302A46.691,46.691,0,0,1,13.046,44.831L0,0Z" fill="#e1b7e6" />
        <path id="arc-label-September-1854"
            d="M110.413,105.788A152.912,152.912,0,0,1,42.726,146.822A152.912,152.912,0,0,0,110.413,105.788Z"
            fill="none" stroke="none" />
        <text dy="-3">
            <textPath xmlns:ns6="http://www.w3.org/1999/xlink" ns6:href="#arc-label-September-1854"
                startOffset="25%" text-anchor="middle" transform="rotate(180)"
                dominant-baseline="middle" style="font-size: 10px;">September 1854</textPath>
        </text>
        <path d="M32.511,111.718A116.352,116.352,0,0,1,-27.704,113.006L0,0Z" fill="#9aced5" />
        <path d="M16.4,56.356A58.694,58.694,0,0,1,-13.975,57.006L0,0Z" fill="#252626" />
        <path d="M16.654,57.23A59.604,59.604,0,0,1,-14.192,57.89L0,0Z" fill="#e1b7e6" />
        <path id="arc-label-October-1854"
            d="M34.136,117.304A122.17,122.17,0,0,1,-29.089,118.656A122.17,122.17,0,0,0,34.136,117.304Z"
            fill="none" stroke="none" />
        <text dy="-3">
            <textPath xmlns:ns7="http://www.w3.org/1999/xlink" ns7:href="#arc-label-October-1854"
                startOffset="25%" text-anchor="middle" transform="rotate(180)"
                dominant-baseline="middle" style="font-size: 10px;">October 1854</textPath>
        </text>
        <path d="M-35.886,146.382A150.717,150.717,0,0,1,-104.269,108.827L0,0Z" fill="#9aced5" />
        <path d="M-12.718,51.876A53.413,53.413,0,0,1,-36.952,38.567L0,0Z" fill="#252626" />
        <path d="M-20.927,85.361A87.888,87.888,0,0,1,-60.803,63.461L0,0Z" fill="#e1b7e6" />
        <path id="arc-label-November-1854"
            d="M-37.681,153.701A158.253,158.253,0,0,1,-109.483,114.269A158.253,158.253,0,0,0,-37.681,153.701Z"
            fill="none" stroke="none" />
        <text dy="-3">
            <textPath xmlns:ns8="http://www.w3.org/1999/xlink" ns8:href="#arc-label-November-1854"
                startOffset="25%" text-anchor="middle" transform="rotate(180)"
                dominant-baseline="middle" style="font-size: 10px;">November 1854</textPath>
        </text>
        <path d="M-149.067,155.583A215.469,215.469,0,0,1,-206.887,60.205L0,0Z" fill="#9aced5" />
        <path d="M-41.079,42.875A59.378,59.378,0,0,1,-57.013,16.591L0,0Z" fill="#252626" />
        <path d="M-38.321,39.996A55.391,55.391,0,0,1,-53.185,15.477L0,0Z" fill="#e1b7e6" />
        <path id="arc-label-December-1854"
            d="M-156.52,163.362A226.242,226.242,0,0,1,-217.231,63.216A226.242,226.242,0,0,0,-156.52,163.362Z"
            fill="none" stroke="none" />
        <text dy="-3">
            <textPath xmlns:ns9="http://www.w3.org/1999/xlink" ns9:href="#arc-label-December-1854"
                startOffset="25%" text-anchor="middle" transform="rotate(180)"
                dominant-baseline="middle" style="font-size: 10px;">December 1854</textPath>
        </text>
        <path d="M-261.741,76.168A272.599,272.599,0,0,1,-264.758,-64.907L0,0Z" fill="#9aced5" />
        <path d="M-89.663,26.092A93.382,93.382,0,0,1,-90.696,-22.235L0,0Z" fill="#252626" />
        <path d="M-45.381,13.206A47.264,47.264,0,0,1,-45.905,-11.254L0,0Z" fill="#e1b7e6" />
        <path id="arc-label-January-1854"
            d="M-274.828,79.977A286.228,286.228,0,0,1,-277.996,-68.152A286.228,286.228,0,0,0,-274.828,79.977Z"
            fill="none" stroke="none" />
        <text dy="-3">
            <textPath xmlns:ns10="http://www.w3.org/1999/xlink" ns10:href="#arc-label-January-1854"
                startOffset="25%" text-anchor="middle" transform="rotate(180)"
                dominant-baseline="middle" style="font-size: 10px;">January 1854</textPath>
        </text>
        <path d="M-231.998,-56.876A238.868,238.868,0,0,1,-172.479,-165.255L0,0Z" fill="#9aced5" />
        <path d="M-95.735,-23.47A98.57,98.57,0,0,1,-71.174,-68.193L0,0Z" fill="#252626" />
        <path d="M-32.654,-8.005A33.621,33.621,0,0,1,-24.277,-23.26L0,0Z" fill="#e1b7e6" />
        <path id="arc-label-February-1855"
            d="M-243.598,-59.719A250.812,250.812,0,0,1,-181.102,-173.517A250.812,250.812,0,0,0,-243.598,-59.719Z"
            fill="none" stroke="none" />
        <text dy="-3">
            <textPath xmlns:ns11="http://www.w3.org/1999/xlink" ns11:href="#arc-label-February-1855"
                startOffset="25%" text-anchor="middle" transform="rotate(180)"
                dominant-baseline="middle" style="font-size: 10px;">February 1855</textPath>
        </text>
        <path d="M-130.035,-124.589A180.088,180.088,0,0,1,-50.319,-172.915L0,0Z" fill="#9aced5" />
        <path d="M-49.128,-47.071A68.038,68.038,0,0,1,-19.011,-65.329L0,0Z" fill="#252626" />
        <path d="M-21.191,-20.303A29.347,29.347,0,0,1,-8.2,-28.178L0,0Z" fill="#e1b7e6" />
        <path id="arc-label-March-1855"
            d="M-136.537,-130.818A189.092,189.092,0,0,1,-52.835,-181.56A189.092,189.092,0,0,0,-136.537,-130.818Z"
            fill="none" stroke="none" />
        <text dy="-3">
            <textPath xmlns:ns12="http://www.w3.org/1999/xlink" ns12:href="#arc-label-March-1855"
                startOffset="25%" text-anchor="middle" transform="rotate(180)"
                dominant-baseline="middle" style="font-size: 10px;">March 1855</textPath>
        </text>
    </g>
    <g transform="translate(400.5,308)" id="category-layer">
        <path
            d="M-3.2413487300551553,-11.138418446120479A11.600461502488042,11.600461502488042,0,0,1,2.7621188803080488,-11.266827697349104L3.705771346982641,-15.116035573230013A15.563652293959562,15.563652293959562,0,0,1,10.767309913718455,-11.237985137435135L8.791471730340326,-9.175776441232388A12.70766888476594,12.70766888476594,0,0,1,12.201526075743654,-3.5507196323838532L23.889246141559887,-6.951918534708134A24.880218096416527,24.880218096416527,0,0,1,24.164653303204307,5.924085014682816L27.59797887836203,6.765781865662344A28.415211461895588,28.415211461895588,0,0,1,20.51765986893673,19.658328411308666L31.341243144253433,30.028592660374322A43.404952470771114,43.404952470771114,0,0,1,12.128016418921211,41.67614565590581L16.40007148458971,56.35643491483869A58.69420841113799,58.69420841113799,0,0,1,-13.975338927883849,57.006140045269476L-12.717750391866772,51.87637048665955A53.41253588717718,53.41253588717718,0,0,1,-36.95208016167587,38.56737950164711L-41.0791649324485,42.87487298762783A59.37804750286528,59.37804750286528,0,0,1,-57.01303689156518,16.591146725092695L-89.66253890650663,26.09235395706957A93.38191376375737,93.38191376375737,0,0,1,-90.69621343938013,-22.234628081895586L-95.73489196379015,-23.469885197556454A98.5697978617439,98.5697978617439,0,0,1,-71.17390587042279,-68.19296278688327L-49.12826445050049,-47.07064855421064A68.03846208750109,68.03846208750109,0,0,1,-19.01100078086809,-65.32850964580591L-3.2413487300551553,-11.138418446120479Z"
            fill="none" stroke="#131313" opacity="1" style="stroke-width: 1.5;" />
        <path
            d="M-1.4495752198371885,-4.981252161472593A5.187884097986521,5.187884097986521,0,0,1,1.2352571156608803,-5.038678524410004L4.27905616947126,-17.45449441456861A17.97135768298258,17.97135768298258,0,0,1,12.433018554266951,-12.976507488494377L11.903708995092696,-12.424060033487635A17.206265008872656,17.206265008872656,0,0,1,16.520944405751425,-4.807697109596885L94.3812557742636,-27.465529780978223A98.29637209824566,98.29637209824566,0,0,1,95.46933003207812,23.404781368406635L144.98791981922585,35.54451008809689A149.28130857849916,149.28130857849916,0,0,1,107.79096676126251,103.27640861097703L105.15509193566311,100.75093088575244A145.63084643832647,145.63084643832647,0,0,1,40.69151551069627,139.83041156982335L32.51058233770837,111.71783728382954A116.35210840940155,116.35210840940155,0,0,1,-27.703928445633572,113.0057763125069L-35.88629208585719,146.3820665035984A150.7167387967752,150.7167387967752,0,0,1,-104.2694738457799,108.82744220765082L-149.06665578121314,155.58285918956256A215.46900923194022,215.46900923194022,0,0,1,-206.8869403585023,60.205380560971925L-261.7409838342864,76.1682468349134A272.59850411263164,272.59850411263164,0,0,1,-264.75846462948084,-64.90685519638434L-231.99818166826932,-56.87550879417696A238.86812218875042,238.86812218875042,0,0,1,-172.4785645594301,-165.25472630305705L-130.03513776787958,-124.58893750943133A180.08759092186338,180.08759092186338,0,0,1,-50.31926393687746,-172.91475379761923L-1.4495752198371885,-4.981252161472593Z"
            fill="none" stroke="#4d676b" opacity="1" style="stroke-width: 1.5;" />
        <path
            d="M5.038678524410003,1.2352571156608845A5.187884097986521,5.187884097986521,0,0,1,3.7459950458117124,3.589103304572818L33.71395541230541,32.301929741155355A46.690956881878684,46.690956881878684,0,0,1,13.046176978534701,44.831269453253334L16.654351322447734,57.230230199564545A59.604250407724,59.604250407724,0,0,1,-14.19202377099154,57.89000887847814L-20.926582632956745,85.36062748811433A87.88833020292618,87.88833020292618,0,0,1,-60.80326591859191,63.46118057120893L-38.321136837548075,39.99628223585334A55.39144447667096,55.39144447667096,0,0,1,-53.185219121142964,15.47722805440726L-45.381366958065016,13.206258758300292A47.263873491005135,47.263873491005135,0,0,1,-45.90454602329819,-11.253727905393687L-32.6543689793376,-8.005381062461279A33.621331612444195,33.621331612444195,0,0,1,-24.276822549426264,-23.26004785673511L-21.190547993477463,-20.303034280339812A29.347104205568996,29.347104205568996,0,0,1,-8.20003574229496,-28.178217457419315L0,0Z"
            fill="none" stroke="#715c73" opacity="1" style="stroke-width: 1.5;" />
    </g>
    <text x="400.5" y="16" text-anchor="middle" font-size="16" font-weight="bold" dy="1em">Nightingale's
        Polar Area Chart</text>
    <g id="legend" transform="translate(728,272.5)">
        <g class="legend-item" transform="translate(0, 0)">
            <rect width="18" height="18" fill="#252626" />
            <text x="24" y="9" dy="0.35em" style="font-size: 12px; fill: rgb(0, 0, 0);">Other</text>
        </g>
        <g class="legend-item" transform="translate(0, 25)">
            <rect width="18" height="18" fill="#9aced5" />
            <text x="24" y="9" dy="0.35em" style="font-size: 12px; fill: rgb(0, 0, 0);">Zymotic</text>
        </g>
        <g class="legend-item" transform="translate(0, 50)">
            <rect width="18" height="18" fill="#e1b7e6" />
            <text x="24" y="9" dy="0.35em" style="font-size: 12px; fill: rgb(0, 0, 0);">Wounds</text>
        </g>
    </g>
</svg>