<svg xmlns="http://www.w3.org/2000/svg" width="805" height="600"><rect width="805" height="600" fill="#FFFFFF"/><text x="402.5" y="50" font-size="20" style="text-anchor: middle;"/><g transform="translate(62, 70)"><g fill="none" font-size="10" font-family="sans-serif" text-anchor="left" transform="translate(0, 0)"><path class="domain" stroke="currentColor" d="M-6,480.5H0.5V0.5H-6"/><g class="tick" opacity="1" transform="translate(0,480.5)"><line stroke="currentColor" x2="-6"/></g><g class="tick" opacity="1" transform="translate(0,420.5)"><line stroke="currentColor" x2="-6"/></g><g class="tick" opacity="1" transform="translate(0,360.5)"><line stroke="currentColor" x2="-6"/></g><g class="tick" opacity="1" transform="translate(0,300.5)"><line stroke="currentColor" x2="-6"/></g><g class="tick" opacity="1" transform="translate(0,240.5)"><line stroke="currentColor" x2="-6"/></g><g class="tick" opacity="1" transform="translate(0,180.5)"><line stroke="currentColor" x2="-6"/></g><g class="tick" opacity="1" transform="translate(0,120.5)"><line stroke="currentColor" x2="-6"/></g><g class="tick" opacity="1" transform="translate(0,60.5)"><line stroke="currentColor" x2="-6"/></g><g class="tick" opacity="1" transform="translate(0,0.5)"><line stroke="currentColor" x2="-6"/></g></g><g fill="none" font-size="10" font-family="sans-serif" text-anchor="middle" transform="translate(0, 480)"><path class="domain" stroke="currentColor" d="M0.5,6V0.5H705.5V6"/><g class="tick" opacity="1" transform="translate(0.5,0)"><line stroke="currentColor" y2="6"/></g><g class="tick" opacity="1" transform="translate(88.625,0)"><line stroke="currentColor" y2="6"/></g><g class="tick" opacity="1" transform="translate(176.75,0)"><line stroke="currentColor" y2="6"/></g><g class="tick" opacity="1" transform="translate(264.875,0)"><line stroke="currentColor" y2="6"/></g><g class="tick" opacity="1" transform="translate(353,0)"><line stroke="currentColor" y2="6"/></g><g class="tick" opacity="1" transform="translate(441.125,0)"><line stroke="currentColor" y2="6"/></g><g class="tick" opacity="1" transform="translate(529.25,0)"><line stroke="currentColor" y2="6"/></g><g class="tick" opacity="1" transform="translate(617.375,0)"><line stroke="currentColor" y2="6"/></g><g class="tick" opacity="1" transform="translate(705.5,0)"><line stroke="currentColor" y2="6"/></g></g><circle cx="404.8322879111999" cy="356.72065803834255" r="5" fill="#1f77b4"/><circle cx="607.4901688357465" cy="112.2611270489059" r="5" fill="#1f77b4"/><circle cx="175.70426573886482" cy="336.0681367076894" r="5" fill="#1f77b4"/><circle cx="387.2213914569178" cy="472.5897445106133" r="5" fill="#1f77b4"/><circle cx="281.4232648269124" cy="85.53039642549741" r="5" fill="#1f77b4"/><circle cx="316.67495670749855" cy="98.73039051675468" r="5" fill="#1f77b4"/><circle cx="413.6102345026637" cy="79.56645564856098" r="5" fill="#1f77b4"/><circle cx="263.80310877790106" cy="122.95239429402814" r="5" fill="#1f77b4"/><circle cx="281.43378372877055" cy="171.8064575753305" r="5" fill="#1f77b4"/><circle cx="263.81351317965044" cy="208.64126291033534" r="5" fill="#1f77b4"/><circle cx="246.16854140553605" cy="50.02422084092052" r="5" fill="#1f77b4"/><circle cx="122.80720811158773" cy="151.54817135618435" r="5" fill="#1f77b4"/><circle cx="263.7936157291074" cy="49.97280594646179" r="5" fill="#1f77b4"/><circle cx="387.1778275421387" cy="118.48214229813586" r="5" fill="#1f77b4"/><circle cx="316.66826619927735" cy="46.88259859545616" r="5" fill="#1f77b4"/><circle cx="140.41981277167233" cy="60.510452887869484" r="5" fill="#1f77b4"/><circle cx="122.7983974155321" cy="90.10347821030709" r="5" fill="#1f77b4"/><circle cx="475.2963345776536" cy="69.50235710452175" r="5" fill="#1f77b4"/><circle cx="316.66826619927735" cy="46.88259859545616" r="5" fill="#1f77b4"/><circle cx="387.18503097689216" cy="176.97817062056777" r="5" fill="#1f77b4"/><circle cx="492.92381301537387" cy="84.52169476872335" r="5" fill="#ff7f0e"/><circle cx="246.17311617976975" cy="85.6332262144148" r="5" fill="#1f77b4"/><circle cx="387.176453734901" cy="110.06597721851684" r="5" fill="#1f77b4"/><circle cx="299.0479956501573" cy="83.71740393046097" r="5" fill="#1f77b4"/><circle cx="413.6103490027724" cy="80.15364818208688" r="5" fill="#1f77b4"/><circle cx="281.42177651956587" cy="76.52703881235243" r="5" fill="#1f77b4"/><circle cx="633.9305805377187" cy="137.32167113375246" r="5" fill="#1f77b4"/><circle cx="351.9385412971806" cy="206.62261083746412" r="5" fill="#1f77b4"/><circle cx="210.93863370926286" cy="210.55708519428916" r="5" fill="#1f77b4"/><circle cx="395.98058540485874" cy="44.00886516952536" r="5" fill="#1f77b4"/><circle cx="554.6063686230416" cy="45.50317833023108" r="5" fill="#1f77b4"/><circle cx="140.41866796465217" cy="53.26867287530227" r="5" fill="#1f77b4"/><circle cx="387.18125750935224" cy="146.84936765906292" r="5" fill="#1f77b4"/><circle cx="334.3062635388559" cy="148.17799740949087" r="5" fill="#1f77b4"/><circle cx="501.74372536207625" cy="143.8728044442148" r="5" fill="#1f77b4"/><circle cx="246.17208587285842" cy="78.9786387353735" r="5" fill="#1f77b4"/><circle cx="193.30138275028105" cy="110.44242252521417" r="5" fill="#1f77b4"/><circle cx="316.66815169916856" cy="46.29540606193025" r="5" fill="#1f77b4"/><circle cx="334.29802979719113" cy="83.02738160801763" r="5" fill="#1f77b4"/><circle cx="334.3028335716424" cy="119.81077204856378" r="5" fill="#1f77b4"/><circle cx="175.66984691870616" cy="59.820430565426136" r="5" fill="#1f77b4"/><circle cx="369.55412702580514" cy="126.94972227221355" r="5" fill="#1f77b4"/><circle cx="316.66952550640633" cy="54.71157114154927" r="5" fill="#1f77b4"/><circle cx="633.9213209429896" cy="58.87458253001242" r="5" fill="#ff7f0e"/><circle cx="466.4950650222801" cy="152.97899184627713" r="5" fill="#1f77b4"/><circle cx="369.5577859932363" cy="156.4913327001925" r="5" fill="#1f77b4"/><circle cx="369.55641218599857" cy="148.07516762057347" r="5" fill="#1f77b4"/><circle cx="246.17677514720089" cy="115.1748366423937" r="5" fill="#1f77b4"/><circle cx="299.0445656829438" cy="55.350178569533846" r="5" fill="#1f77b4"/><circle cx="246.18169342176088" cy="152.54541961646575" r="5" fill="#1f77b4"/><circle cx="334.3062635388559" cy="148.17799740949087" r="5" fill="#1f77b4"/><circle cx="334.30117583809" cy="105.92075563486317" r="5" fill="#1f77b4"/><circle cx="281.44213197054404" cy="237.54426591032964" r="5" fill="#1f77b4"/><circle cx="69.92477725227344" cy="99.84827304035399" r="5" fill="#1f77b4"/><circle cx="633.917428521494" cy="34.800472358207216" r="5" fill="#1f77b4"/><circle cx="633.9222322959452" cy="71.58386279875332" r="5" fill="#1f77b4"/><circle cx="395.99145226089007" cy="125.40461859671072" r="5" fill="#1f77b4"/><circle cx="633.9322648119974" cy="145.4676759246546" r="5" fill="#ff7f0e"/><circle cx="263.81362767975924" cy="209.22845544386124" r="5" fill="#1f77b4"/><circle cx="387.1795997757999" cy="132.95935124536237" r="5" fill="#1f77b4"/><circle cx="633.9257767632674" cy="100.53828069320636" r="5" fill="#1f77b4"/><circle cx="210.91839275839345" cy="50.12705062983791" r="5" fill="#1f77b4"/><circle cx="122.79485294820982" cy="61.14906031585406" r="5" fill="#1f77b4"/><circle cx="633.9293212305897" cy="129.49269858765933" r="5" fill="#1f77b4"/><circle cx="633.934125005041" cy="166.2760890282055" r="5" fill="#1f77b4"/><circle cx="633.9305805377187" cy="137.32167113375246" r="5" fill="#1f77b4"/><circle cx="510.5476280318164" cy="76.64130732817151" r="5" fill="#1f77b4"/><circle cx="228.55319358482296" cy="117.58772382677179" r="5" fill="#1f77b4"/><circle cx="607.491881495396" cy="130.45060972963626" r="5" fill="#1f77b4"/><circle cx="281.41960585948124" cy="55.98878599751848" r="5" fill="#1f77b4"/><circle cx="299.060002859362" cy="178.99682269343901" r="5" fill="#1f77b4"/><circle cx="281.4314985685771" cy="150.6810122269706" r="5" fill="#1f77b4"/><circle cx="193.29480674216865" cy="59.181823137441505" r="5" fill="#1f77b4"/><circle cx="387.1681054931274" cy="44.3281688835177" r="5" fill="#1f77b4"/><circle cx="228.5566190981896" cy="152.59683451092442" r="5" fill="#1f77b4"/><circle cx="281.4314985685771" cy="150.6810122269706" r="5" fill="#1f77b4"/><circle cx="281.4231503268036" cy="84.94320389197145" r="5" fill="#1f77b4"/></g></svg>