<svg width="120" height="100" viewBox="0 0 120 100" xmlns="http://www.w3.org/2000/svg">
  <!-- Bar 1 -->
  <g transform="translate(10, 10)">
    <rect x="0" y="0" width="100" height="10" fill="#e6dbf5"></rect>
    <rect x="0" y="0" width="70" height="10" fill="#c7b3ea"></rect>
    <rect x="0" y="0" width="40" height="10" fill="#a98de0"></rect>
    <rect x="0" y="2" width="60" height="6" fill="#6a0dad"></rect>
    <rect x="80" y="-1" width="2" height="12" fill="#9b30ff"></rect>
  </g>

  <!-- Bar 2 -->
  <g transform="translate(10, 40)">
    <rect x="0" y="0" width="100" height="10" fill="#e6dbf5"></rect>
    <rect x="0" y="0" width="70" height="10" fill="#c7b3ea"></rect>
    <rect x="0" y="0" width="40" height="10" fill="#a98de0"></rect>
    <rect x="0" y="2" width="45" height="6" fill="#6a0dad"></rect>
    <rect x="75" y="-1" width="2" height="12" fill="#9b30ff"></rect>
  </g>

  <!-- Bar 3 -->
  <g transform="translate(10, 70)">
    <rect x="0" y="0" width="100" height="10" fill="#e6dbf5"></rect>
    <rect x="0" y="0" width="70" height="10" fill="#c7b3ea"></rect>
    <rect x="0" y="0" width="40" height="10" fill="#a98de0"></rect>
    <rect x="0" y="2" width="80" height="6" fill="#6a0dad"></rect>
    <rect x="90" y="-1" width="2" height="12" fill="#9b30ff"></rect>
  </g>
</svg>
